# xmcd
#
# Track frame offsets: 
#        150
#        19347
#        35611
#        50700
#        73307
#        86457
#        93149
#        110194
#        131031
#        148506
#        166389
#        181546
#        195279
#        209216
#        226002
#        244913
#        259272
#        283079
#
# Disc length: 3945 seconds
#
# Revision: 0
# Processed by: cddbd v1.5.2PL0 Copyright (c) Steve Scherf et al.
# Submitted via: ExactAudioCopy v0.99pb5
#
DISCID=0c0f6712
DTITLE=Ian Anderson - The Secret Language of Birds
DYEAR=2000
DGENRE=Progressive Rock
TTITLE0=Secret Language of Birds
TTITLE1=Little Flower Girl
TTITLE2=Montserrat
TTITLE3=Postcard Day
TTITLE4=Water Carrier
TTITLE5=Set-Aside
TTITLE6=Better Moon
TTITLE7=Sanctuary
TTITLE8=Jasmine Corridor
TTITLE9=Habanero Reel
TTITLE10=Panama Freighter
TTITLE11=Secret Language of Birds, Pt.2
TTITLE12=Boris Dancing
TTITLE13=Circular Breathing
TTITLE14=Stormont Shuffle
TTITLE15=Intro - (hidden track)
TTITLE16=In the Grip of Stronger Stuff - (hidden track)
TTITLE17=Untitled - (hidden track)
EXTD=
EXTT0=
EXTT1=
EXTT2=
EXTT3=
EXTT4=
EXTT5=
EXTT6=
EXTT7=
EXTT8=
EXTT9=
EXTT10=
EXTT11=
EXTT12=
EXTT13=
EXTT14=
EXTT15=
EXTT16=
EXTT17=
PLAYORDER=
